<svg width="32" height="32" viewBox="0 0 32 32" fill="none" xmlns="http://www.w3.org/2000/svg">
<rect width="32" height="32" rx="16" fill="white" fill-opacity="0.21"/>
<path d="M16.8226 8C17.7226 8.0024 18.1794 8.0072 18.5738 8.0184L18.729 8.024C18.9082 8.0304 19.085 8.0384 19.2986 8.048C20.1498 8.088 20.7306 8.2224 21.2402 8.42C21.7682 8.6232 22.213 8.8984 22.6578 9.3424C23.0648 9.74219 23.3796 10.226 23.5802 10.76C23.7778 11.2696 23.9122 11.8504 23.9522 12.7024C23.9618 12.9152 23.9698 13.092 23.9762 13.272L23.981 13.4272C23.993 13.8208 23.9978 14.2776 23.9994 15.1776L24.0002 15.7744V16.8224C24.0022 17.4059 23.996 17.9894 23.9818 18.5728L23.977 18.728C23.9706 18.908 23.9626 19.0848 23.953 19.2976C23.913 20.1496 23.777 20.7296 23.5802 21.24C23.3796 21.774 23.0648 22.2578 22.6578 22.6576C22.258 23.0646 21.7742 23.3793 21.2402 23.58C20.7306 23.7776 20.1498 23.912 19.2986 23.952L18.729 23.976L18.5738 23.9808C18.1794 23.992 17.7226 23.9976 16.8226 23.9992L16.2258 24H15.1786C14.5948 24.0021 14.011 23.9959 13.4274 23.9816L13.2722 23.9768C13.0823 23.9696 12.8924 23.9613 12.7026 23.952C11.8514 23.912 11.2706 23.7776 10.7602 23.58C10.2265 23.3792 9.74296 23.0645 9.34341 22.6576C8.93617 22.2579 8.6211 21.7741 8.42021 21.24C8.22261 20.7304 8.08821 20.1496 8.04821 19.2976L8.02421 18.728L8.02021 18.5728C8.00546 17.9895 7.9988 17.4059 8.00021 16.8224V15.1776C7.998 14.5941 8.00386 14.0106 8.01781 13.4272L8.02341 13.272C8.02981 13.092 8.03781 12.9152 8.04741 12.7024C8.08741 11.8504 8.22181 11.2704 8.41941 10.76C8.62077 10.2258 8.93639 9.74195 9.34421 9.3424C9.74353 8.93564 10.2268 8.62086 10.7602 8.42C11.2706 8.2224 11.8506 8.088 12.7026 8.048C12.9154 8.0384 13.093 8.0304 13.2722 8.024L13.4274 8.0192C14.0108 8.00499 14.5943 7.99885 15.1778 8.0008L16.8226 8ZM16.0002 12C14.9393 12 13.9219 12.4214 13.1718 13.1716C12.4216 13.9217 12.0002 14.9391 12.0002 16C12.0002 17.0609 12.4216 18.0783 13.1718 18.8284C13.9219 19.5786 14.9393 20 16.0002 20C17.0611 20 18.0785 19.5786 18.8286 18.8284C19.5788 18.0783 20.0002 17.0609 20.0002 16C20.0002 14.9391 19.5788 13.9217 18.8286 13.1716C18.0785 12.4214 17.0611 12 16.0002 12ZM16.0002 13.6C16.3154 13.5999 16.6275 13.662 16.9187 13.7825C17.2099 13.9031 17.4745 14.0798 17.6974 14.3027C17.9203 14.5255 18.0971 14.79 18.2178 15.0812C18.3384 15.3724 18.4006 15.6844 18.4006 15.9996C18.4007 16.3148 18.3386 16.6269 18.2181 16.9181C18.0975 17.2093 17.9208 17.4739 17.6979 17.6968C17.4751 17.9197 17.2106 18.0965 16.9194 18.2172C16.6283 18.3378 16.3162 18.3999 16.001 18.4C15.3645 18.4 14.754 18.1471 14.304 17.6971C13.8539 17.247 13.601 16.6365 13.601 16C13.601 15.3635 13.8539 14.753 14.304 14.3029C14.754 13.8529 15.3645 13.6 16.001 13.6M20.201 10.8C19.9358 10.8 19.6814 10.9054 19.4939 11.0929C19.3064 11.2804 19.201 11.5348 19.201 11.8C19.201 12.0652 19.3064 12.3196 19.4939 12.5071C19.6814 12.6946 19.9358 12.8 20.201 12.8C20.4662 12.8 20.7206 12.6946 20.9081 12.5071C21.0957 12.3196 21.201 12.0652 21.201 11.8C21.201 11.5348 21.0957 11.2804 20.9081 11.0929C20.7206 10.9054 20.4662 10.8 20.201 10.8Z" fill="white"/>
</svg>
