<svg width="32" height="32" viewBox="0 0 32 32" fill="none" xmlns="http://www.w3.org/2000/svg">
<rect width="32" height="32" rx="16" fill="white" fill-opacity="0.21"/>
<path fill-rule="evenodd" clip-rule="evenodd" d="M19.2185 10.0022C20.6825 9.90144 21.8137 10.7558 22.5665 11.7414C23.3249 12.7358 23.8473 14.0342 24.1345 15.311C24.4201 16.5878 24.4969 17.9598 24.2593 19.1294C24.0313 20.2526 23.4225 21.5374 22.0457 21.9494C20.7497 22.3366 19.6137 21.7734 18.8041 21.0918C17.9913 20.4078 17.3033 19.4494 16.7625 18.551C16.5093 18.129 16.2719 17.6978 16.0505 17.2582C15.8294 17.6975 15.5922 18.1285 15.3393 18.5502C14.7985 19.4494 14.1105 20.4078 13.2977 21.0918C12.4873 21.7734 11.3521 22.3366 10.0561 21.9494C8.67931 21.5374 8.07051 20.2534 7.84251 19.1294C7.60571 17.9598 7.68251 16.5878 7.96811 15.311C8.25451 14.0342 8.77691 12.735 9.53611 11.7414C10.2881 10.7558 11.4193 9.90144 12.8833 10.0022C14.2561 10.0982 15.2537 11.0286 15.8753 11.8174L16.0513 12.0486L16.2265 11.8166C16.8481 11.0286 17.8457 10.0974 19.2185 10.0022ZM12.7169 12.3966C12.3809 12.3734 11.9409 12.5454 11.4433 13.1982C10.9521 13.8422 10.5441 14.7926 10.3097 15.8366C10.0753 16.8806 10.0417 17.8998 10.1945 18.6526C10.3265 19.3006 10.5385 19.5334 10.6681 19.615L10.7225 19.6422L10.7441 19.6502C10.9297 19.7062 11.2353 19.6902 11.7521 19.255C12.2681 18.8214 12.7945 18.1246 13.2833 17.3134C13.5009 16.951 13.7033 16.5798 13.8849 16.223L14.0929 15.803L14.2793 15.4054L14.4441 15.039L14.5841 14.7134L14.6985 14.4366C14.5435 14.1258 14.3663 13.8267 14.1681 13.5414C13.6529 12.8086 13.1361 12.4262 12.7169 12.3974V12.3966ZM19.3849 12.3966C18.9657 12.4262 18.4489 12.8086 17.9337 13.5414C17.7355 13.8267 17.5583 14.1258 17.4033 14.4366L17.5849 14.871L17.7369 15.2182L17.8225 15.4054L18.0097 15.803L18.2177 16.223C18.3993 16.5798 18.6009 16.951 18.8185 17.3134C19.3073 18.1246 19.8345 18.8214 20.3489 19.255C20.8297 19.6598 21.1273 19.7014 21.3169 19.6606L21.3585 19.6502C21.4625 19.6182 21.7449 19.451 21.9073 18.6518C22.0593 17.8998 22.0265 16.8806 21.7921 15.8358C21.5585 14.7926 21.1505 13.8422 20.6585 13.1982C20.1601 12.5454 19.7209 12.3742 19.3849 12.3966Z" fill="white"/>
</svg>
