<svg width="25" height="24" viewBox="0 0 25 24" fill="none" xmlns="http://www.w3.org/2000/svg">
<path d="M12.3019 0C5.52157 0 0 5.48295 0 12.2159C0 17.2159 3.03257 21.5341 7.38116 23.4091C7.29533 22.4716 7.20951 20.9943 7.40977 19.9716C7.61004 19.0341 8.69718 13.9489 8.69718 13.9489C8.69718 13.9489 8.38248 13.2955 8.38248 12.3295C8.38248 10.8239 9.26937 9.6875 10.3565 9.6875C11.3006 9.6875 11.7584 10.3977 11.7584 11.2216C11.7584 12.1591 11.1576 13.5511 10.8429 14.858C10.5854 15.9375 11.3864 16.8182 12.4736 16.8182C14.419 16.8182 15.9353 14.7727 15.9353 11.8182C15.9353 9.20455 14.0471 7.38636 11.3578 7.38636C8.23944 7.38636 6.40845 9.71591 6.40845 12.1023C6.40845 13.0398 6.78037 14.0341 7.23812 14.5739C7.32394 14.6875 7.35255 14.7727 7.32394 14.8864C7.23812 15.2273 7.06646 15.9659 7.03785 16.1364C6.98063 16.3352 6.8662 16.392 6.66593 16.2784C5.26408 15.625 4.3772 13.608 4.3772 11.9602C4.3772 8.4375 6.95203 5.22727 11.787 5.22727C15.6778 5.22727 18.7104 7.98295 18.7104 11.6477C18.7104 15.483 16.2786 18.5795 12.8741 18.5795C11.7298 18.5795 10.6712 17.983 10.2993 17.3011L9.61268 19.9432C9.35519 20.9091 8.66857 22.1307 8.21083 22.8693C9.44102 23.2386 10.7284 23.4375 12.0731 23.4375C18.8534 23.4375 24.375 17.9545 24.375 11.2216C24.375 4.48864 19.0823 0 12.3019 0Z" fill="white"/>
</svg>
