<svg width="30" height="30" viewBox="0 0 30 30" fill="none" xmlns="http://www.w3.org/2000/svg">
<path d="M27.0876 7.86519C26.682 6.6061 25.4654 5.61682 23.9538 5.28706C21.1887 4.6875 14.7 4.6875 14.7 4.6875C14.7 4.6875 8.21119 4.6875 5.44609 5.28706C3.9345 5.61682 2.71786 6.6061 2.31231 7.86519C1.57495 10.1735 1.57495 15 1.57495 15C1.57495 15 1.57495 19.8265 2.31231 22.1348C2.71786 23.3939 3.9345 24.3832 5.44609 24.7129C8.21119 25.3125 14.7 25.3125 14.7 25.3125C14.7 25.3125 21.1887 25.3125 23.9538 24.7129C25.4654 24.3832 26.682 23.3939 27.0876 22.1348C27.825 19.8265 27.825 15 27.825 15C27.825 15 27.825 10.1735 27.0876 7.86519Z" fill="white"/>
<path opacity="0.9" d="M12.6844 18.791C12.06 19.1813 11.25 18.7324 11.25 17.996V12.004C11.25 11.2676 12.06 10.8187 12.6844 11.209L17.478 14.205C18.0655 14.5722 18.0655 15.4278 17.478 15.795L12.6844 18.791Z" fill="#525D4C"/>
</svg>
