<svg width="30" height="30" viewBox="0 0 30 30" fill="none" xmlns="http://www.w3.org/2000/svg">
<path d="M19.2001 5.3999H10.8001C7.81781 5.3999 5.40015 7.81756 5.40015 10.7999V19.1999C5.40015 22.1822 7.81781 24.5999 10.8001 24.5999H19.2001C22.1825 24.5999 24.6001 22.1822 24.6001 19.1999V10.7999C24.6001 7.81756 22.1825 5.3999 19.2001 5.3999Z" stroke="white" stroke-width="1.875" stroke-linecap="round" stroke-linejoin="round"/>
<path d="M15.0001 19.5005C17.4854 19.5005 19.5001 17.4858 19.5001 15.0005C19.5001 12.5152 17.4854 10.5005 15.0001 10.5005C12.5148 10.5005 10.5001 12.5152 10.5001 15.0005C10.5001 17.4858 12.5148 19.5005 15.0001 19.5005Z" stroke="white" stroke-width="1.875" stroke-linecap="round" stroke-linejoin="round"/>
<path d="M20.2502 10.7997C20.8301 10.7997 21.3002 10.3296 21.3002 9.74971C21.3002 9.16981 20.8301 8.69971 20.2502 8.69971C19.6703 8.69971 19.2002 9.16981 19.2002 9.74971C19.2002 10.3296 19.6703 10.7997 20.2502 10.7997Z" fill="white"/>
</svg>
