<svg width="30" height="30" viewBox="0 0 30 30" fill="none" xmlns="http://www.w3.org/2000/svg">
<path d="M14.7768 2.8125C7.99642 2.8125 2.47485 8.29545 2.47485 15.0284C2.47485 20.0284 5.50742 24.3466 9.85602 26.2216C9.77019 25.2841 9.68436 23.8068 9.88463 22.7841C10.0849 21.8466 11.172 16.7614 11.172 16.7614C11.172 16.7614 10.8573 16.108 10.8573 15.142C10.8573 13.6364 11.7442 12.5 12.8314 12.5C13.7755 12.5 14.2332 13.2102 14.2332 14.0341C14.2332 14.9716 13.6324 16.3636 13.3177 17.6705C13.0602 18.75 13.8613 19.6307 14.9484 19.6307C16.8939 19.6307 18.4102 17.5852 18.4102 14.6307C18.4102 12.017 16.5219 10.1989 13.8327 10.1989C10.7143 10.1989 8.8833 12.5284 8.8833 14.9148C8.8833 15.8523 9.25522 16.8466 9.71297 17.3864C9.7988 17.5 9.82741 17.5852 9.7988 17.6989C9.71297 18.0398 9.54132 18.7784 9.51271 18.9489C9.45549 19.1477 9.34105 19.2045 9.14079 19.0909C7.73894 18.4375 6.85205 16.4205 6.85205 14.7727C6.85205 11.25 9.42688 8.03977 14.2618 8.03977C18.1527 8.03977 21.1852 10.7955 21.1852 14.4602C21.1852 18.2955 18.7535 21.392 15.349 21.392C14.2046 21.392 13.1461 20.7955 12.7741 20.1136L12.0875 22.7557C11.83 23.7216 11.1434 24.9432 10.6857 25.6818C11.9159 26.0511 13.2033 26.25 14.5479 26.25C21.3283 26.25 26.8499 20.767 26.8499 14.0341C26.8499 7.30114 21.5572 2.8125 14.7768 2.8125Z" fill="white"/>
</svg>
