<svg width="40" height="40" viewBox="0 0 40 40" fill="none" xmlns="http://www.w3.org/2000/svg">
<g clip-path="url(#clip0_16478_1799)">
<path d="M20.1195 3.42906C19.8387 2.86016 19.2593 2.5 18.6249 2.5C17.9905 2.5 17.4111 2.86016 17.1304 3.42906L12.9151 11.9701L3.48955 13.3397C2.86174 13.4309 2.34016 13.8707 2.14412 14.474C1.94808 15.0774 2.11157 15.7397 2.56586 16.1825L9.38627 22.8308L7.77619 32.2183C7.66895 32.8435 7.92599 33.4755 8.43923 33.8484C8.95247 34.2213 9.63291 34.2704 10.1944 33.9752L18.6249 29.543L27.0554 33.9752C27.617 34.2704 28.2974 34.2213 28.8106 33.8484C29.3239 33.4755 29.5809 32.8435 29.4737 32.2183L27.8636 22.8308L34.684 16.1825C35.1383 15.7397 35.3018 15.0774 35.1057 14.474C34.9097 13.8707 34.3881 13.4309 33.7603 13.3397L24.3347 11.9701L20.1195 3.42906Z" fill="url(#paint0_linear_16478_1799)"/>
</g>
<defs>
<linearGradient id="paint0_linear_16478_1799" x1="11.2178" y1="21.6792" x2="7.51202" y2="3.43185" gradientUnits="userSpaceOnUse">
<stop stop-color="#535A41"/>
<stop offset="1" stop-color="#7A7B5D"/>
</linearGradient>
<clipPath id="clip0_16478_1799">
<rect width="20" height="20" fill="white" transform="translate(2 2)"/>
</clipPath>
</defs>
</svg>
