<svg width="30" height="30" viewBox="0 0 30 30" fill="none" xmlns="http://www.w3.org/2000/svg">
<path d="M19.2188 4.6875C19.8047 8.97485 22.1484 11.5473 26.25 12.1189V16.1204C23.6133 16.0633 21.2695 15.2344 19.2188 13.6623V20.122C19.2188 24.5236 15.5273 28.125 11.0156 28.125C6.50391 28.125 2.8125 24.5236 2.8125 20.122C2.8125 15.7203 6.50391 12.1189 11.0156 12.1189C11.748 12.1189 12.4805 12.2046 13.1543 12.4047V16.9207C12.5391 16.5492 11.8359 16.3491 11.0156 16.3491C8.87695 16.3491 7.14844 18.0354 7.14844 20.122C7.14844 22.2085 8.87695 23.8948 11.0156 23.8948C13.1543 23.8948 14.8828 22.2085 14.8828 20.122V4.6875H19.2188Z" fill="white"/>
</svg>
